<svg width="16" height="13" viewBox="0 0 16 13" fill="none" xmlns="http://www.w3.org/2000/svg">
<g clip-path="url(#clip0_14_398)">
<path fill-rule="evenodd" clip-rule="evenodd" d="M0 -0.928581H16V13.9286H0V-0.928581Z" fill="#229E45"/>
<path fill-rule="evenodd" clip-rule="evenodd" d="M8.03499 11.8083L15.5725 6.50813L7.98999 1.19167L0.42749 6.51896L8.03499 11.8083Z" fill="#F8E509"/>
<path fill-rule="evenodd" clip-rule="evenodd" d="M11.32 6.5C11.32 8.40396 9.89245 9.94771 8.12995 9.94771C7.50013 9.94664 6.88473 9.7433 6.36157 9.36339C5.8384 8.98348 5.43095 8.44407 5.19072 7.81333C4.9505 7.1826 4.88829 6.48887 5.01195 5.81984C5.13561 5.15081 5.43959 4.53651 5.88547 4.05461C6.33135 3.57271 6.8991 3.24485 7.51696 3.11246C8.13482 2.98006 8.77504 3.0491 9.35668 3.31082C9.93833 3.57255 10.4353 4.01522 10.7847 4.58288C11.1342 5.15054 11.3204 5.81769 11.32 6.5Z" fill="#2B49A3"/>
<path fill-rule="evenodd" clip-rule="evenodd" d="M7.08256 8.56646L6.98256 8.50417L6.88256 8.55833L6.90506 8.43646L6.82506 8.34438L6.93756 8.33083L6.99256 8.2225L7.04006 8.33625L7.15006 8.35792L7.06756 8.43917M9.21756 9.15146L9.12006 9.08917L9.02006 9.14333L9.04006 9.02146L8.96256 8.93208L9.07506 8.91854L9.12756 8.8075L9.17756 8.92125L9.28756 8.94292L9.20256 9.02688M8.29756 8.21438L8.21256 8.16021L8.12506 8.20896L8.14506 8.10333L8.07506 8.02479L8.17506 8.01396L8.22006 7.91646L8.26006 8.01667L8.35756 8.03563L8.28256 8.10875M10.4576 7.87854L10.3726 7.82438L10.2851 7.87313L10.3051 7.7675L10.2376 7.69167L10.3351 7.68083L10.3801 7.58604L10.4201 7.68354L10.5151 7.7025L10.4426 7.77292M8.26006 7.17708L8.16006 7.1175L8.06006 7.17167L8.08006 7.04708L8.00256 6.95771L8.11506 6.94417L8.16756 6.83313L8.21756 6.94688L8.32756 6.96854L8.24256 7.05521M5.62756 6.10729L5.52756 6.04771L5.42756 6.10188L5.45256 5.97729L5.37006 5.88792L5.48506 5.87437L5.53506 5.76333L5.58506 5.87708L5.69506 5.89875L5.61256 5.98271M5.94506 7.53188L5.84506 7.46958L5.74506 7.52375L5.76756 7.40187L5.68756 7.3125L5.80006 7.29625L5.85256 7.18792L5.90256 7.30167L6.01256 7.32333L5.93006 7.40729M9.23006 5.58458L9.14006 5.53042L9.05006 5.57917L9.07006 5.47083L9.00006 5.38958L9.10006 5.37604L9.14756 5.27854L9.19006 5.38146L9.29006 5.40042L9.21506 5.47354M9.04756 6.51083L8.98006 6.4675L8.90756 6.50542L8.92256 6.41875L8.86756 6.35646L8.94756 6.34563L8.98506 6.26979L9.01756 6.35104L9.09256 6.36458L9.03756 6.42417M5.48256 7.78917L5.41506 7.74854L5.34756 7.78375L5.36256 7.7025L5.31006 7.64292L5.38506 7.63208L5.42006 7.55896L5.45256 7.63479L5.52756 7.65104L5.47006 7.70521M10.4751 8.11958L10.4201 8.08979L10.3651 8.11688L10.3776 8.05458L10.3351 8.01125L10.3951 8.00313L10.4251 7.94896L10.4501 8.00313L10.5126 8.01667L10.4651 8.05729" fill="#FFFFEF"/>
<path fill-rule="evenodd" clip-rule="evenodd" d="M5.48256 7.78917L5.41506 7.74854L5.34756 7.78375L5.36256 7.7025L5.31006 7.64292L5.38506 7.63208L5.42006 7.55896L5.45256 7.63479L5.52756 7.65104L5.47006 7.70521" fill="#FFFFEF"/>
<path fill-rule="evenodd" clip-rule="evenodd" d="M5.48256 7.78917L5.41506 7.74854L5.34756 7.78375L5.36256 7.7025L5.31006 7.64292L5.38506 7.63208L5.42006 7.55896L5.45256 7.63479L5.52756 7.65104L5.47006 7.70521M6.52756 7.78646L6.46256 7.74854L6.39506 7.78375L6.41006 7.7025L6.35756 7.64292L6.43256 7.63208L6.46756 7.55896L6.50006 7.63479L6.57506 7.64833L6.51756 7.70521M6.39756 8.16563L6.33256 8.125L6.26506 8.16292L6.28006 8.08167L6.22756 8.01938L6.30256 8.00854L6.33756 7.93542L6.37006 8.01125L6.44506 8.0275L6.38756 8.08167M8.57256 7.48042L8.50756 7.43708L8.43756 7.475L8.45256 7.39375L8.40256 7.33146L8.47756 7.32333L8.51256 7.25021L8.54256 7.32604L8.61756 7.33958L8.56256 7.39646M7.93506 7.47771L7.86756 7.43708L7.80006 7.475L7.81506 7.39375L7.76506 7.33146L7.84006 7.32333L7.87506 7.2475L7.90506 7.32604L7.98006 7.33958L7.92506 7.39646M6.20506 7.23937L6.16256 7.21229L6.12006 7.23396L6.13006 7.1825L6.09756 7.14458L6.14506 7.13917L6.16506 7.09312L6.18506 7.14188L6.23256 7.15L6.19756 7.18521M10.3926 8.41479L10.3276 8.37417L10.2601 8.41208L10.2751 8.33083L10.2226 8.26854L10.2976 8.25771L10.3326 8.18458L10.3651 8.26042L10.4401 8.27667L10.3826 8.33083M9.86256 8.49333L9.80756 8.45542L9.75006 8.48792L9.76256 8.4175L9.72006 8.36875L9.78256 8.36063L9.81256 8.29833L9.83756 8.36333L9.90006 8.37417L9.85256 8.42292M10.1126 8.48521L10.0626 8.45271L10.0101 8.47979L10.0201 8.4175L9.98006 8.37146L10.0376 8.36333L10.0651 8.30917L10.0901 8.36333L10.1476 8.37687L10.1051 8.42021M10.8326 7.80271L10.7826 7.77563L10.7326 7.80271L10.7451 7.74042L10.7051 7.69438L10.7626 7.68625L10.7876 7.63208L10.8126 7.68896L10.8651 7.69979L10.8251 7.74312M9.85506 8.87521L9.79256 8.83729L9.72506 8.86979L9.74006 8.79396L9.69006 8.73979L9.76506 8.73167L9.79756 8.66396L9.82756 8.73438L9.90256 8.74792L9.84506 8.79937M9.86006 9.18396L9.80006 9.14604L9.74006 9.18125L9.75506 9.10542L9.70756 9.05125L9.77506 9.04042L9.80506 8.97271L9.83256 9.04312L9.90006 9.05667L9.85006 9.11083M9.37506 8.48521L9.32756 8.45271L9.27756 8.47979L9.28756 8.42021L9.25006 8.37417L9.30506 8.36875L9.33006 8.31458L9.35506 8.36875L9.41006 8.37958L9.37006 8.42292M8.92506 8.48521L8.87506 8.45271L8.82506 8.47979L8.83756 8.42021L8.79756 8.37417L8.85506 8.36875L8.88006 8.31458L8.90506 8.36875L8.95756 8.37958L8.91756 8.42292M8.15756 7.75667L8.10756 7.72687L8.05756 7.75396L8.07006 7.69167L8.03006 7.64833L8.08506 7.64021L8.11006 7.58604L8.13506 7.64021L8.19006 7.65375L8.15006 7.69438M8.24256 9.23813L8.20256 9.21375L8.15756 9.23813L8.16756 9.18396L8.13506 9.14604L8.18256 9.14062L8.20506 9.09458L8.22506 9.14333L8.27256 9.15146L8.23756 9.18667M7.08256 6.84125L6.98256 6.77896L6.88256 6.83313L6.90506 6.71125L6.82506 6.62188L6.93756 6.60562L6.99256 6.49729L7.04006 6.61104L7.15006 6.63271L7.06756 6.71667" fill="#FFFFEF"/>
<path fill-rule="evenodd" clip-rule="evenodd" d="M11.11 7.74042C11.1718 7.5663 11.2203 7.38694 11.255 7.20417C9.55995 5.59271 7.67245 4.76667 5.28745 4.93729C5.20101 5.11865 5.12989 5.3081 5.07495 5.50334C7.89995 5.21084 9.97495 6.565 11.11 7.74042Z" fill="white"/>
<path d="M10.3501 6.83584L10.4076 6.87104C10.3981 6.88913 10.3955 6.91046 10.4001 6.93063C10.4059 6.95023 10.4184 6.96668 10.4351 6.97667C10.4517 6.99111 10.4684 6.99743 10.4851 6.99563C10.5001 6.99563 10.5109 6.98931 10.5176 6.97667L10.5226 6.95229L10.5101 6.92521C10.5051 6.91618 10.4926 6.89993 10.4726 6.87646C10.4522 6.85331 10.4369 6.82556 10.4276 6.79521C10.4228 6.77216 10.4251 6.74804 10.4341 6.72652C10.4431 6.70501 10.4584 6.68728 10.4776 6.67604C10.4958 6.66816 10.5158 6.66627 10.5351 6.67063C10.5586 6.67649 10.5807 6.68756 10.6001 6.70313C10.6351 6.73021 10.6567 6.7591 10.6651 6.78979C10.6687 6.80498 10.6692 6.82084 10.6666 6.83627C10.6641 6.8517 10.6584 6.86634 10.6501 6.87917L10.5901 6.83854C10.5984 6.82049 10.6001 6.80514 10.5951 6.7925C10.5917 6.77806 10.5817 6.76542 10.5651 6.75459C10.5524 6.74307 10.5366 6.7364 10.5201 6.73563C10.5155 6.73546 10.5111 6.73663 10.5071 6.73902C10.5031 6.74141 10.4998 6.74491 10.4976 6.74917C10.4926 6.75639 10.4917 6.76542 10.4951 6.77625C10.4984 6.7907 10.5117 6.81056 10.5351 6.83584C10.5584 6.86111 10.5751 6.88368 10.5851 6.90354C10.5937 6.92138 10.5976 6.94148 10.5963 6.96157C10.5949 6.98167 10.5885 7.00096 10.5776 7.01729C10.566 7.03583 10.5494 7.05002 10.5301 7.05792C10.5113 7.06727 10.4904 7.07011 10.4701 7.06604C10.4484 7.06063 10.4251 7.04889 10.4001 7.03084C10.3634 7.00375 10.3409 6.97396 10.3326 6.94146C10.328 6.92327 10.3269 6.90423 10.3295 6.88558C10.3321 6.86692 10.3383 6.84906 10.3476 6.83313L10.3501 6.83584ZM10.0601 6.63L10.1226 6.66521C10.114 6.68366 10.1122 6.70497 10.1176 6.72479C10.124 6.74338 10.1364 6.7588 10.1526 6.76813C10.1709 6.78257 10.1876 6.78799 10.2026 6.78438C10.2176 6.78438 10.2284 6.77716 10.2351 6.76271L10.2401 6.74104C10.2401 6.73202 10.2359 6.72299 10.2276 6.71396L10.1876 6.66521C10.1592 6.63632 10.1426 6.61104 10.1376 6.58938C10.134 6.57537 10.133 6.56072 10.1347 6.5463C10.1364 6.53187 10.1408 6.51797 10.1476 6.50542C10.1575 6.4891 10.1713 6.476 10.1876 6.4675C10.2048 6.45923 10.2239 6.45641 10.2426 6.45938C10.2657 6.4636 10.2878 6.47281 10.3076 6.48646C10.3459 6.51354 10.3684 6.54153 10.3751 6.57042C10.3798 6.58561 10.3814 6.60175 10.3796 6.61768C10.3779 6.6336 10.3729 6.64891 10.3651 6.6625L10.3026 6.62459C10.3109 6.60653 10.3126 6.59118 10.3076 6.57854C10.3009 6.56049 10.2901 6.54785 10.2751 6.54063C10.2614 6.52951 10.2447 6.52377 10.2276 6.52438C10.2235 6.52468 10.2195 6.52607 10.216 6.52843C10.2125 6.53079 10.2096 6.53405 10.2076 6.53792C10.2026 6.54514 10.2017 6.55417 10.2051 6.565C10.2101 6.57945 10.2242 6.59931 10.2476 6.62459C10.2726 6.65167 10.2892 6.67334 10.2976 6.68959C10.3073 6.70668 10.3125 6.72637 10.3125 6.74646C10.3125 6.76655 10.3073 6.78624 10.2976 6.80334C10.287 6.82245 10.2713 6.83758 10.2526 6.84667C10.2338 6.85602 10.2129 6.85886 10.1926 6.85479C10.1668 6.85008 10.1422 6.83996 10.1201 6.825C10.0878 6.80634 10.0629 6.77551 10.0501 6.73834C10.0447 6.72051 10.0429 6.70168 10.0446 6.68303C10.0463 6.66438 10.0516 6.64633 10.0601 6.63ZM9.70508 6.52709L9.88758 6.20209L10.1076 6.35104L10.0776 6.40521L9.91758 6.29688L9.87758 6.37L10.0276 6.47021L9.99508 6.52438L9.84508 6.42417L9.79508 6.51354L9.96258 6.62188L9.93258 6.67604L9.70508 6.52709ZM9.18758 6.06667L9.21508 6.0125L9.35008 6.08563L9.28758 6.22104C9.26758 6.22646 9.24258 6.22827 9.21258 6.22646C9.18372 6.22328 9.15571 6.21408 9.13008 6.19938C9.10001 6.1831 9.07422 6.15889 9.05508 6.12896C9.03789 6.10093 9.02915 6.06781 9.03008 6.03417C9.03167 5.99921 9.0402 5.96503 9.05508 5.93396C9.0701 5.90139 9.09245 5.87345 9.12008 5.85271C9.14635 5.83258 9.1779 5.82213 9.21008 5.82292C9.23341 5.82292 9.26008 5.83195 9.29008 5.85C9.33008 5.86986 9.35591 5.89514 9.36758 5.92584C9.38058 5.95541 9.38324 5.98909 9.37508 6.02063L9.30758 5.99896C9.31171 5.98082 9.30994 5.96169 9.30258 5.94479C9.29591 5.92854 9.28258 5.91591 9.26258 5.90688C9.25082 5.89998 9.2379 5.8957 9.22459 5.89431C9.21128 5.89291 9.19784 5.89442 9.18508 5.89875C9.16008 5.90778 9.13841 5.93125 9.12008 5.96917C9.10174 6.00709 9.09591 6.04139 9.10258 6.07209C9.10646 6.086 9.11289 6.09893 9.12148 6.11009C9.13007 6.12126 9.14064 6.13044 9.15258 6.13709C9.16591 6.14611 9.18008 6.15063 9.19508 6.15063H9.24008L9.26008 6.10729L9.18758 6.06667ZM6.93258 5.46271L6.98258 5.08354L7.08758 5.1025L7.11508 5.36792L7.21258 5.12417L7.31758 5.14042L7.26758 5.51417L7.20008 5.50334L7.24258 5.20813L7.13258 5.4925L7.06508 5.48167L7.03758 5.17563L6.99758 5.47354L6.93258 5.46271ZM6.58008 5.41667L6.61258 5.0375L6.87008 5.06459L6.86508 5.12959L6.67758 5.11063L6.67008 5.19188L6.84508 5.21084L6.83758 5.27584L6.66258 5.25688L6.65508 5.35979L6.85008 5.37875L6.84508 5.44375L6.58008 5.41667Z" fill="#309E3A"/>
<path d="M5.41247 5.18105C5.41247 5.14132 5.4183 5.10882 5.42997 5.08355C5.43886 5.06437 5.4507 5.04697 5.46497 5.03209C5.4776 5.01783 5.49296 5.00673 5.50997 4.99959C5.53497 4.99056 5.55997 4.98605 5.58497 4.98605C5.63664 4.98785 5.6783 5.00591 5.70997 5.04021C5.72595 5.06058 5.73778 5.08438 5.74468 5.11006C5.75157 5.13573 5.75337 5.16269 5.74997 5.18917C5.74997 5.24875 5.7333 5.2966 5.69997 5.33271C5.66545 5.36515 5.62059 5.38168 5.57497 5.37875C5.53003 5.37806 5.48706 5.35867 5.45497 5.32459C5.4392 5.30508 5.42729 5.28228 5.41998 5.25759C5.41267 5.2329 5.41012 5.20685 5.41247 5.18105Z" fill="#309E3A"/>
<path d="M5.48486 5.18104C5.48486 5.22257 5.4932 5.25507 5.50986 5.27854C5.52653 5.30202 5.54986 5.31375 5.57986 5.31375C5.60589 5.31407 5.631 5.30338 5.64986 5.28396C5.66653 5.26229 5.6757 5.22889 5.67736 5.18375C5.67903 5.14042 5.6707 5.10792 5.65236 5.08625C5.63492 5.06548 5.61072 5.05286 5.58486 5.05104C5.55849 5.05145 5.53333 5.06313 5.51486 5.08354C5.49653 5.10521 5.48653 5.13771 5.48486 5.18104Z" fill="#F7FFFF"/>
<path d="M5.82495 5.37604L5.82995 4.99688H5.97995C6.01662 4.99688 6.04328 5.00139 6.05995 5.01042C6.07662 5.01583 6.08995 5.02757 6.09995 5.04563C6.11495 5.07271 6.11495 5.08354 6.11495 5.10792C6.11468 5.13388 6.1058 5.15887 6.08995 5.17833C6.07099 5.19629 6.04746 5.20761 6.02245 5.21083L6.05995 5.24333C6.06995 5.25417 6.08245 5.27493 6.09745 5.30563L6.13995 5.38146H6.05495L6.00495 5.29479L5.96995 5.24063L5.94745 5.22438L5.91245 5.21896H5.89745V5.37604H5.82495Z" fill="#309E3A"/>
<path d="M5.8999 5.15937H5.9499C5.9849 5.15937 6.00657 5.15757 6.0149 5.15396C6.02324 5.15215 6.0299 5.14764 6.0349 5.14042C6.04157 5.12958 6.04407 5.12056 6.0424 5.11333C6.0424 5.09708 6.03907 5.08625 6.0324 5.08083C6.0274 5.07361 6.01907 5.06819 6.0074 5.06458H5.9574L5.8999 5.06187V5.15937Z" fill="white"/>
<path d="M6.22502 5.01583L6.35502 5.02396C6.38335 5.02396 6.40502 5.02667 6.42002 5.03208C6.43932 5.04005 6.4565 5.05308 6.47002 5.07C6.48442 5.08894 6.49468 5.11116 6.50002 5.135C6.50669 5.16028 6.50919 5.19007 6.50752 5.22438C6.50764 5.25203 6.50341 5.27951 6.49502 5.30563C6.48502 5.33271 6.47085 5.35438 6.45252 5.37063C6.43795 5.38363 6.42086 5.39289 6.40252 5.39771C6.38585 5.40313 6.36502 5.40493 6.34002 5.40313L6.20752 5.395L6.22502 5.01583Z" fill="#309E3A"/>
<path d="M6.29253 5.08354L6.28003 5.33542H6.37503C6.38836 5.33542 6.39836 5.3309 6.40503 5.32188C6.41336 5.31465 6.42003 5.30292 6.42503 5.28667C6.43003 5.27042 6.43336 5.24694 6.43503 5.21625L6.43253 5.14854C6.42918 5.13416 6.42227 5.12105 6.41253 5.11063L6.38253 5.09167L6.32503 5.08354H6.29253Z" fill="white"/>
<path d="M7.93994 5.69292L8.02244 5.32458L8.13244 5.35167L8.21244 5.37875C8.23077 5.38958 8.24411 5.40674 8.25244 5.43021C8.26077 5.45368 8.26244 5.47896 8.25744 5.50604C8.25244 5.52771 8.24411 5.54577 8.23244 5.56021C8.22316 5.57196 8.21167 5.58143 8.19873 5.58797C8.1858 5.59451 8.17172 5.59797 8.15744 5.59813C8.14077 5.59813 8.11577 5.59361 8.08244 5.58458L8.03994 5.57104L8.00994 5.71188L7.93994 5.69292Z" fill="#309E3A"/>
<path d="M8.07493 5.40583L8.05493 5.50875L8.09243 5.51958C8.1191 5.52681 8.13743 5.52951 8.14743 5.52771C8.15703 5.52589 8.16592 5.52108 8.17303 5.51387C8.18014 5.50665 8.18514 5.49734 8.18743 5.48708C8.18743 5.47445 8.18576 5.46271 8.18243 5.45188C8.17695 5.44087 8.16811 5.43225 8.15743 5.4275L8.10993 5.41396L8.07743 5.40583H8.07493Z" fill="white"/>
<path d="M8.26489 5.79854L8.38239 5.44104L8.51989 5.49521C8.55656 5.50965 8.58156 5.52229 8.59489 5.53313C8.60823 5.54577 8.61656 5.56202 8.61989 5.58188C8.62489 5.61167 8.62489 5.6225 8.61989 5.64417C8.60989 5.67125 8.59489 5.69111 8.57489 5.70375C8.55489 5.71459 8.52989 5.71729 8.49989 5.71188C8.50989 5.72452 8.51823 5.73896 8.52489 5.75521L8.54489 5.82834L8.55989 5.91229L8.48239 5.8825L8.45739 5.785L8.43989 5.72L8.42489 5.69834C8.41989 5.69111 8.40906 5.68479 8.39239 5.67938L8.37989 5.67396L8.32989 5.82563L8.26489 5.79854Z" fill="#309E3A"/>
<path d="M8.39996 5.61708L8.44746 5.63604C8.48079 5.64868 8.50163 5.655 8.50996 5.655C8.51829 5.655 8.52579 5.65229 8.53246 5.64688C8.54079 5.64146 8.54579 5.63333 8.54746 5.6225C8.55246 5.61167 8.55246 5.60083 8.54746 5.59C8.54326 5.57984 8.53628 5.57133 8.52746 5.56563L8.47746 5.54667L8.42746 5.52771L8.39746 5.61708H8.39996Z" fill="white"/>
<path d="M8.67507 5.785C8.68367 5.75329 8.69813 5.7238 8.71757 5.69833C8.73036 5.68215 8.74557 5.66841 8.76257 5.65771L8.81257 5.63875C8.83757 5.63694 8.86341 5.64056 8.89007 5.64958C8.9346 5.66317 8.97235 5.6953 8.99507 5.73896C9.01507 5.78229 9.01674 5.83375 9.00007 5.89333C8.99448 5.91892 8.98404 5.94297 8.9694 5.96395C8.95477 5.98494 8.93627 6.00239 8.91507 6.01521C8.87674 6.03868 8.83341 6.04229 8.78507 6.02604C8.74054 6.01246 8.70279 5.98032 8.68007 5.93667C8.66964 5.91312 8.66381 5.8875 8.66295 5.8614C8.66209 5.8353 8.66622 5.80929 8.67507 5.785Z" fill="#309E3A"/>
<path d="M8.74508 5.80667C8.73341 5.84819 8.73341 5.8825 8.74508 5.90958C8.76258 5.95021 8.77508 5.95292 8.80258 5.96375C8.82758 5.97278 8.85258 5.96917 8.87758 5.95292C8.90091 5.93847 8.91841 5.90958 8.93008 5.86625C8.94341 5.82653 8.94341 5.79312 8.93008 5.76604C8.91885 5.741 8.89916 5.7216 8.87508 5.71187C8.85006 5.70388 8.82314 5.7068 8.80008 5.72C8.77508 5.73444 8.75674 5.76333 8.74508 5.80667Z" fill="white"/>
<path d="M9.35742 6.31313L9.51742 5.97729L9.64992 6.05042C9.6749 6.0634 9.69771 6.08079 9.71742 6.10188C9.73076 6.11452 9.73742 6.13167 9.73742 6.15334C9.73742 6.18584 9.73742 6.19396 9.72742 6.21292C9.7174 6.23697 9.69962 6.25623 9.67742 6.26709C9.65242 6.27431 9.62659 6.2725 9.59992 6.26167C9.60992 6.27973 9.61659 6.29507 9.61992 6.30771C9.62492 6.32396 9.62826 6.34924 9.62992 6.38354L9.63492 6.47021L9.55992 6.42959L9.54992 6.32938L9.54242 6.26167L9.52992 6.23459L9.49992 6.21563L9.48742 6.2075L9.41992 6.34834L9.35742 6.31313Z" fill="#309E3A"/>
<path d="M9.51245 6.15334L9.55995 6.18042C9.58995 6.19847 9.60912 6.2075 9.61745 6.2075C9.62578 6.2075 9.63412 6.2057 9.64245 6.20209C9.64912 6.19848 9.65495 6.19125 9.65995 6.18042C9.66495 6.16959 9.66662 6.15875 9.66495 6.14792L9.64745 6.12084L9.60245 6.09375L9.55245 6.06667L9.51245 6.15334Z" fill="white"/>
<path d="M10.6525 7.00646C10.6688 6.97866 10.69 6.9547 10.715 6.93604C10.732 6.92458 10.7506 6.91634 10.77 6.91167C10.7882 6.90799 10.8069 6.90799 10.825 6.91167C10.85 6.91708 10.8734 6.92792 10.895 6.94417C10.9336 6.97163 10.9605 7.01446 10.97 7.06333C10.9767 7.11028 10.965 7.15993 10.935 7.21229C10.9229 7.23475 10.9067 7.25427 10.8874 7.26965C10.868 7.28502 10.8459 7.29592 10.8225 7.30167C10.7773 7.31064 10.7306 7.29994 10.6925 7.27188C10.654 7.24441 10.6271 7.20158 10.6175 7.15271C10.6109 7.10396 10.6225 7.05521 10.6525 7.00646Z" fill="#309E3A"/>
<path d="M10.7151 7.04979C10.6918 7.0859 10.6826 7.1184 10.6876 7.14729C10.6924 7.17458 10.7067 7.19882 10.7276 7.215C10.7526 7.23305 10.7776 7.23847 10.8026 7.23125C10.8276 7.22403 10.8518 7.20236 10.8751 7.16625C10.8984 7.12833 10.9076 7.09583 10.9026 7.06875C10.8976 7.04167 10.8843 7.01819 10.8626 6.99833C10.8276 6.96854 10.8126 6.97667 10.7876 6.98479C10.7626 6.99021 10.7376 7.01187 10.7126 7.04979H10.7151Z" fill="white"/>
<path d="M7.54492 5.53854L7.60242 5.27312L7.78242 5.31917L7.77492 5.3625L7.64242 5.33L7.62992 5.38958L7.75242 5.41937L7.74242 5.46542L7.61992 5.43292L7.60492 5.50604L7.74242 5.54125L7.73242 5.58458L7.54492 5.53854Z" fill="#309E3A"/>
</g>
<defs>
<clipPath id="clip0_14_398">
<rect width="16" height="13" rx="4" fill="white"/>
</clipPath>
</defs>
</svg>
