<svg width="32" height="32" viewBox="0 0 32 32" fill="none" xmlns="http://www.w3.org/2000/svg">
<path d="M21.3334 10.6667C23.4551 10.6667 25.49 11.5095 26.9903 13.0098C28.4906 14.5101 29.3334 16.545 29.3334 18.6667V28H24.0001V18.6667C24.0001 17.9594 23.7191 17.2812 23.219 16.7811C22.7189 16.281 22.0407 16 21.3334 16C20.6262 16 19.9479 16.281 19.4478 16.7811C18.9477 17.2812 18.6667 17.9594 18.6667 18.6667V28H13.3334V18.6667C13.3334 16.545 14.1763 14.5101 15.6766 13.0098C17.1769 11.5095 19.2117 10.6667 21.3334 10.6667Z" fill="white"/>
<path d="M8.00008 12H2.66675V28H8.00008V12Z" fill="white"/>
<path d="M5.33341 8.00002C6.80617 8.00002 8.00008 6.80611 8.00008 5.33335C8.00008 3.86059 6.80617 2.66669 5.33341 2.66669C3.86066 2.66669 2.66675 3.86059 2.66675 5.33335C2.66675 6.80611 3.86066 8.00002 5.33341 8.00002Z" fill="white"/>
</svg>
