<svg xmlns="http://www.w3.org/2000/svg" xmlns:xlink="http://www.w3.org/1999/xlink" width="172" zoomAndPan="magnify" viewBox="0 0 129 121.500001" height="162" preserveAspectRatio="xMidYMid meet" version="1.0"><defs><g/></defs><g fill="#000000" fill-opacity="1"><g transform="translate(66.788341, 92.860712)"><g><path d="M 0.355469 0 L 0.355469 -1.308594 L 2.296875 -2.050781 C 2.914062 -2.28125 3.273438 -2.515625 3.386719 -2.75 C 3.546875 -3.085938 3.628906 -3.589844 3.628906 -4.261719 L 3.628906 -36.488281 C 3.628906 -37.152344 3.539062 -37.664062 3.363281 -38.015625 C 3.238281 -38.265625 2.890625 -38.492188 2.324219 -38.691406 L 2.308594 -38.695312 L 0.355469 -39.441406 L 0.355469 -41.753906 L 18.105469 -41.753906 L 18.105469 -39.480469 L 16.367188 -38.707031 L 16.335938 -38.695312 C 15.789062 -38.492188 15.429688 -38.242188 15.261719 -37.945312 C 15.058594 -37.582031 14.957031 -37.074219 14.957031 -36.425781 L 14.957031 -1.234375 L 13.953125 -1.234375 L 13.953125 -2.238281 L 23.460938 -2.238281 C 24.703125 -2.238281 25.582031 -2.507812 26.105469 -3.046875 C 26.75 -3.707031 27.375 -4.6875 27.988281 -5.984375 L 30.664062 -11.746094 L 32.976562 -11.746094 L 32.316406 1.003906 L 0.355469 1.003906 Z M 2.363281 0 L 1.359375 0 L 1.359375 -1.003906 L 31.363281 -1.003906 L 31.363281 0 L 30.363281 -0.0507812 L 30.917969 -10.792969 L 31.921875 -10.742188 L 31.921875 -9.738281 L 31.300781 -9.738281 L 31.300781 -10.742188 L 32.210938 -10.320312 L 29.800781 -5.128906 C 29.097656 -3.628906 28.34375 -2.46875 27.546875 -1.648438 C 26.628906 -0.703125 25.265625 -0.230469 23.460938 -0.230469 L 12.949219 -0.230469 L 12.949219 -36.425781 C 12.949219 -37.425781 13.136719 -38.257812 13.511719 -38.925781 C 13.917969 -39.652344 14.628906 -40.207031 15.644531 -40.578125 L 15.992188 -39.636719 L 15.582031 -40.554688 L 16.695312 -41.046875 L 17.101562 -40.132812 L 16.097656 -40.132812 L 16.097656 -40.75 L 17.101562 -40.75 L 17.101562 -39.746094 L 1.359375 -39.746094 L 1.359375 -40.75 L 2.363281 -40.75 L 2.363281 -40.132812 L 1.359375 -40.132812 L 1.714844 -41.070312 L 3.011719 -40.574219 L 2.65625 -39.636719 L 2.984375 -40.585938 C 4.066406 -40.207031 4.789062 -39.648438 5.15625 -38.914062 C 5.476562 -38.277344 5.632812 -37.46875 5.632812 -36.488281 L 5.632812 -4.261719 C 5.632812 -3.285156 5.488281 -2.492188 5.195312 -1.882812 C 4.855469 -1.167969 4.125 -0.597656 3.011719 -0.171875 L 1.714844 0.320312 L 1.359375 -0.617188 L 2.363281 -0.617188 Z M 2.363281 0 "/></g></g></g><g fill="#ffffff" fill-opacity="1"><g transform="translate(66.788341, 92.860712)"><g><path d="M 1.359375 0 L 1.359375 -0.625 L 2.65625 -1.109375 C 3.519531 -1.441406 4.0625 -1.84375 4.28125 -2.3125 C 4.507812 -2.789062 4.625 -3.441406 4.625 -4.265625 L 4.625 -36.484375 C 4.625 -37.304688 4.5 -37.960938 4.25 -38.453125 C 4.007812 -38.953125 3.476562 -39.347656 2.65625 -39.640625 L 1.359375 -40.125 L 1.359375 -40.75 L 17.09375 -40.75 L 17.09375 -40.125 L 15.984375 -39.640625 C 15.203125 -39.347656 14.664062 -38.941406 14.375 -38.421875 C 14.09375 -37.910156 13.953125 -37.242188 13.953125 -36.421875 L 13.953125 -1.234375 L 23.453125 -1.234375 C 24.984375 -1.234375 26.109375 -1.601562 26.828125 -2.34375 C 27.546875 -3.082031 28.234375 -4.15625 28.890625 -5.5625 L 31.296875 -10.734375 L 31.921875 -10.734375 L 31.359375 0 Z M 1.359375 0 "/></g></g></g><g fill="#000000" fill-opacity="1"><g transform="translate(11.839865, 71.239624)"><g><path d="M 1.925781 -19.523438 L 1.925781 -21.566406 L 29.011719 -36.375 L 30.414062 -33.691406 L 4.96875 -19.71875 L 4.628906 -20.335938 L 4.96875 -20.953125 L 30.414062 -6.980469 L 29.011719 -4.292969 L 1.925781 -19.105469 Z M 3.332031 -19.523438 L 2.628906 -19.523438 L 2.964844 -20.140625 L 29.058594 -5.875 L 28.71875 -5.257812 L 28.09375 -5.582031 L 28.847656 -7.019531 L 29.46875 -6.695312 L 29.132812 -6.078125 L 3.167969 -20.335938 L 29.132812 -34.59375 L 29.46875 -33.976562 L 28.847656 -33.648438 L 28.09375 -35.089844 L 28.71875 -35.414062 L 29.058594 -34.796875 L 2.964844 -20.53125 L 2.628906 -21.148438 L 3.332031 -21.148438 Z M 3.332031 -19.523438 "/></g></g></g><g fill="#000000" fill-opacity="1"><g transform="translate(43.811318, 71.239624)"><g><path d="M 22.777344 1.832031 C 18.402344 1.832031 14.542969 0.914062 11.207031 -0.914062 C 7.855469 -2.753906 5.238281 -5.371094 3.359375 -8.761719 C 1.484375 -12.144531 0.546875 -16.125 0.546875 -20.710938 C 0.546875 -25.167969 1.472656 -29.078125 3.324219 -32.4375 C 5.1875 -35.8125 7.878906 -38.441406 11.402344 -40.320312 C 14.902344 -42.191406 19.132812 -43.125 24.089844 -43.125 C 26.359375 -43.125 28.476562 -42.867188 30.433594 -42.351562 C 32.386719 -41.835938 34.246094 -41.085938 36.007812 -40.09375 L 36.355469 -39.902344 L 36.640625 -30.019531 L 34.867188 -30.019531 L 31.164062 -36.894531 C 30.652344 -37.878906 30.195312 -38.578125 29.785156 -38.984375 C 29.402344 -39.367188 28.90625 -39.667969 28.296875 -39.882812 L 28.53125 -40.546875 L 28.320312 -39.875 C 27.679688 -40.074219 27.09375 -40.222656 26.558594 -40.324219 C 26.039062 -40.417969 25.339844 -40.46875 24.464844 -40.46875 C 22.027344 -40.46875 19.875 -39.820312 18.015625 -38.527344 C 16.15625 -37.238281 14.710938 -35.160156 13.675781 -32.296875 C 12.621094 -29.371094 12.089844 -25.507812 12.089844 -20.710938 C 12.089844 -15.949219 12.589844 -12.082031 13.589844 -9.109375 C 14.5625 -6.203125 15.929688 -4.09375 17.691406 -2.785156 C 19.441406 -1.480469 21.472656 -0.828125 23.777344 -0.828125 C 24.109375 -0.828125 24.433594 -0.855469 24.75 -0.914062 C 25.085938 -0.972656 25.414062 -1.042969 25.734375 -1.121094 L 25.761719 -1.128906 L 25.792969 -1.132812 C 26.339844 -1.21875 26.683594 -1.417969 26.828125 -1.734375 C 27.035156 -2.183594 27.140625 -2.730469 27.140625 -3.378906 L 27.140625 -15.769531 C 27.140625 -16.410156 26.984375 -16.917969 26.675781 -17.289062 C 26.363281 -17.667969 25.863281 -17.929688 25.1875 -18.085938 L 25.175781 -18.085938 L 21.757812 -18.976562 L 21.757812 -20.851562 L 40.8125 -20.851562 L 40.8125 -18.992188 L 39.425781 -18.59375 L 39.230469 -19.273438 L 39.445312 -18.601562 C 38.792969 -18.394531 38.316406 -18.089844 38.007812 -17.6875 C 37.707031 -17.292969 37.558594 -16.777344 37.558594 -16.144531 L 37.558594 -2.152344 L 37.195312 -1.949219 C 34.980469 -0.714844 32.726562 0.226562 30.441406 0.867188 C 28.148438 1.507812 25.59375 1.832031 22.777344 1.832031 Z M 22.777344 0.421875 C 25.464844 0.421875 27.894531 0.117188 30.0625 -0.488281 C 32.242188 -1.101562 34.390625 -1.996094 36.511719 -3.179688 L 36.855469 -2.566406 L 36.148438 -2.566406 L 36.148438 -16.144531 C 36.148438 -17.09375 36.394531 -17.894531 36.886719 -18.539062 C 37.375 -19.179688 38.085938 -19.648438 39.019531 -19.941406 L 39.027344 -19.945312 L 39.914062 -20.199219 L 40.105469 -19.523438 L 39.402344 -19.523438 L 39.402344 -20.148438 L 40.105469 -20.148438 L 40.105469 -19.445312 L 22.460938 -19.445312 L 22.460938 -20.148438 L 23.167969 -20.148438 L 23.167969 -19.523438 L 22.460938 -19.523438 L 22.640625 -20.203125 L 25.519531 -19.453125 L 25.339844 -18.769531 L 25.496094 -19.457031 C 26.484375 -19.234375 27.238281 -18.8125 27.757812 -18.1875 C 28.285156 -17.558594 28.546875 -16.75 28.546875 -15.769531 L 28.546875 -3.378906 C 28.546875 -2.523438 28.402344 -1.78125 28.105469 -1.144531 C 27.753906 -0.375 27.054688 0.09375 26.015625 0.257812 L 25.902344 -0.4375 L 26.074219 0.246094 C 25.726562 0.332031 25.363281 0.410156 24.992188 0.472656 C 24.597656 0.542969 24.191406 0.578125 23.777344 0.578125 C 21.160156 0.578125 18.851562 -0.167969 16.847656 -1.65625 C 14.855469 -3.140625 13.320312 -5.476562 12.253906 -8.660156 C 11.207031 -11.777344 10.683594 -15.796875 10.683594 -20.710938 C 10.683594 -25.671875 11.238281 -29.695312 12.351562 -32.777344 C 13.488281 -35.917969 15.109375 -38.222656 17.210938 -39.683594 C 19.3125 -41.144531 21.730469 -41.875 24.464844 -41.875 C 25.425781 -41.875 26.207031 -41.820312 26.8125 -41.707031 C 27.40625 -41.597656 28.046875 -41.433594 28.742188 -41.21875 L 28.765625 -41.210938 C 29.574219 -40.921875 30.246094 -40.511719 30.78125 -39.980469 C 31.292969 -39.46875 31.832031 -38.664062 32.40625 -37.5625 L 35.910156 -31.054688 L 35.289062 -30.722656 L 35.289062 -31.425781 L 35.914062 -31.425781 L 35.914062 -30.722656 L 35.210938 -30.703125 L 34.960938 -39.460938 L 35.664062 -39.480469 L 35.320312 -38.867188 C 33.664062 -39.796875 31.914062 -40.503906 30.074219 -40.992188 C 28.234375 -41.476562 26.238281 -41.71875 24.089844 -41.71875 C 19.367188 -41.71875 15.359375 -40.839844 12.0625 -39.078125 C 8.785156 -37.332031 6.285156 -34.890625 4.558594 -31.757812 C 2.824219 -28.609375 1.957031 -24.929688 1.957031 -20.710938 C 1.957031 -16.367188 2.832031 -12.613281 4.589844 -9.445312 C 6.335938 -6.289062 8.769531 -3.859375 11.882812 -2.148438 C 15.011719 -0.433594 18.640625 0.421875 22.777344 0.421875 Z M 22.777344 0.421875 "/></g></g></g><g fill="#000000" fill-opacity="1"><g transform="translate(82.977942, 71.239624)"><g><path d="M 31.925781 -21.148438 L 31.925781 -19.105469 L 4.839844 -4.292969 L 3.4375 -6.980469 L 28.882812 -20.953125 L 29.21875 -20.335938 L 28.882812 -19.71875 L 3.4375 -33.691406 L 4.839844 -36.375 L 31.925781 -21.566406 Z M 30.519531 -21.148438 L 31.222656 -21.148438 L 30.882812 -20.53125 L 4.792969 -34.796875 L 5.128906 -35.414062 L 5.753906 -35.089844 L 5.003906 -33.648438 L 4.378906 -33.976562 L 4.71875 -34.59375 L 30.683594 -20.335938 L 4.71875 -6.078125 L 4.378906 -6.695312 L 5.003906 -7.019531 L 5.753906 -5.582031 L 5.128906 -5.257812 L 4.792969 -5.875 L 30.882812 -20.140625 L 31.222656 -19.523438 L 30.519531 -19.523438 Z M 30.519531 -21.148438 "/></g></g></g><g fill="#ffffff" fill-opacity="1"><g transform="translate(11.839865, 71.239624)"><g><path d="M 2.625 -19.515625 L 2.625 -21.140625 L 28.71875 -35.40625 L 29.46875 -33.96875 L 4.625 -20.328125 L 29.46875 -6.6875 L 28.71875 -5.25 Z M 2.625 -19.515625 "/></g></g></g><g fill="#ffffff" fill-opacity="1"><g transform="translate(43.811318, 71.239624)"><g><path d="M 22.765625 1.125 C 18.515625 1.125 14.769531 0.238281 11.53125 -1.53125 C 8.300781 -3.300781 5.78125 -5.820312 3.96875 -9.09375 C 2.15625 -12.375 1.25 -16.242188 1.25 -20.703125 C 1.25 -25.046875 2.144531 -28.84375 3.9375 -32.09375 C 5.726562 -35.34375 8.320312 -37.875 11.71875 -39.6875 C 15.125 -41.507812 19.25 -42.421875 24.09375 -42.421875 C 26.300781 -42.421875 28.351562 -42.171875 30.25 -41.671875 C 32.144531 -41.171875 33.945312 -40.441406 35.65625 -39.484375 L 35.90625 -30.71875 L 35.28125 -30.71875 L 31.78125 -37.21875 C 31.238281 -38.257812 30.738281 -39.007812 30.28125 -39.46875 C 29.820312 -39.9375 29.238281 -40.296875 28.53125 -40.546875 C 27.863281 -40.753906 27.25 -40.910156 26.6875 -41.015625 C 26.125 -41.117188 25.382812 -41.171875 24.46875 -41.171875 C 21.875 -41.171875 19.585938 -40.476562 17.609375 -39.09375 C 15.628906 -37.71875 14.097656 -35.53125 13.015625 -32.53125 C 11.929688 -29.53125 11.390625 -25.585938 11.390625 -20.703125 C 11.390625 -15.867188 11.898438 -11.925781 12.921875 -8.875 C 13.941406 -5.832031 15.390625 -3.613281 17.265625 -2.21875 C 19.140625 -0.820312 21.3125 -0.125 23.78125 -0.125 C 24.15625 -0.125 24.519531 -0.15625 24.875 -0.21875 C 25.226562 -0.28125 25.570312 -0.351562 25.90625 -0.4375 C 26.695312 -0.5625 27.21875 -0.894531 27.46875 -1.4375 C 27.71875 -1.976562 27.84375 -2.625 27.84375 -3.375 L 27.84375 -15.765625 C 27.84375 -17.390625 27.007812 -18.390625 25.34375 -18.765625 L 22.453125 -19.515625 L 22.453125 -20.140625 L 40.109375 -20.140625 L 40.109375 -19.515625 L 39.234375 -19.265625 C 37.640625 -18.765625 36.84375 -17.722656 36.84375 -16.140625 L 36.84375 -2.5625 C 34.675781 -1.351562 32.476562 -0.4375 30.25 0.1875 C 28.019531 0.8125 25.523438 1.125 22.765625 1.125 Z M 22.765625 1.125 "/></g></g></g><g fill="#ffffff" fill-opacity="1"><g transform="translate(82.977942, 71.239624)"><g><path d="M 31.21875 -21.15625 L 31.21875 -19.53125 L 5.125 -5.265625 L 4.375 -6.703125 L 29.21875 -20.34375 L 4.375 -33.984375 L 5.125 -35.421875 Z M 31.21875 -21.15625 "/></g></g></g></svg>